<svg width="32" height="32" viewBox="0 0 49 49" fill="none" xmlns="http://www.w3.org/2000/svg">
  <path d="M34.6509 36.0159C36.8188 35.9919 38.5436 34.1953 38.5436 32.0274V13.6299C38.5436 13.2826 38.2561 12.9951 37.9088 12.9951H36.4116C36.0642 12.9951 35.7768 13.2826 35.7768 13.6299V32.0513C35.7768 32.6861 35.2498 33.2371 34.615 33.2251C33.9921 33.2132 33.4891 32.6981 33.4891 32.0753V27.0447C33.4891 25.1523 33.1178 23.3078 32.3871 21.571C31.6805 19.8942 30.6624 18.397 29.3808 17.1034C28.0992 15.8098 26.59 14.8037 24.9132 14.097C23.1764 13.3664 21.3319 12.9951 19.4394 12.9951H11.0791C10.7318 12.9951 10.4443 13.2826 10.4443 13.6299V15.1391C10.4443 15.4864 10.7318 15.7739 11.0791 15.7739H19.4155C22.4218 15.7739 25.2605 16.9477 27.3805 19.0797C29.5125 21.2117 30.6863 24.0384 30.6863 27.0447V32.0873C30.6863 34.2552 32.471 36.0399 34.6509 36.0159Z" fill="white"/>
  <path d="M19.4155 18.0732C14.4688 18.0732 10.4443 22.0977 10.4443 27.0444C10.4443 31.9911 14.4688 36.0156 19.4155 36.0156C24.3622 36.0156 28.3866 31.9911 28.3866 27.0444C28.3866 22.0977 24.3742 18.0732 19.4155 18.0732ZM19.4155 33.2727C15.9779 33.2727 13.1872 30.4819 13.1872 27.0444C13.1872 23.6069 15.9779 20.8161 19.4155 20.8161C22.853 20.8161 25.6438 23.6069 25.6438 27.0444C25.6438 30.4819 22.853 33.2727 19.4155 33.2727Z" fill="white"/>
</svg>











